<svg xmlns="http://www.w3.org/2000/svg" viewBox="0 0 1280 720" role="img" aria-labelledby="title desc">
  <title id="title">DraftBetter LoL Assistant preview</title>
  <desc id="desc">Dark desktop assistant UI with champion recommendation cards and draft team columns.</desc>
  <defs>
    <linearGradient id="bg" x1="0" y1="0" x2="1" y2="1">
      <stop offset="0" stop-color="#09090b"/>
      <stop offset="1" stop-color="#071a20"/>
    </linearGradient>
    <linearGradient id="cyan" x1="0" y1="0" x2="1" y2="1">
      <stop offset="0" stop-color="#06b6d4"/>
      <stop offset="1" stop-color="#0e7490"/>
    </linearGradient>
    <linearGradient id="card" x1="0" y1="0" x2="0" y2="1">
      <stop offset="0" stop-color="#2a3342"/>
      <stop offset="1" stop-color="#09090b"/>
    </linearGradient>
  </defs>
  <rect width="1280" height="720" fill="url(#bg)"/>
  <rect x="0" y="0" width="1280" height="42" fill="#121214" opacity=".9"/>
  <rect x="46" y="12" width="20" height="20" rx="5" fill="url(#cyan)"/>
  <text x="80" y="28" fill="#e4e4e7" font-family="Inter, Arial, sans-serif" font-size="16" font-weight="700">DraftBetter</text>
  <text x="176" y="28" fill="#52525b" font-family="Inter, Arial, sans-serif" font-size="13" font-weight="700">v2.4.0</text>
  <rect x="0" y="42" width="70" height="678" fill="#121214" opacity=".58"/>
  <g fill="#27272a">
    <rect x="15" y="94" width="40" height="40" rx="12"/>
    <rect x="15" y="150" width="40" height="40" rx="12" fill="#062b34" stroke="#06b6d4"/>
    <rect x="15" y="206" width="40" height="40" rx="12"/>
    <rect x="15" y="262" width="40" height="40" rx="12"/>
    <rect x="15" y="318" width="40" height="40" rx="12"/>
  </g>
  <rect x="70" y="42" width="1210" height="64" fill="#0c0c10" opacity=".6"/>
  <text x="108" y="82" fill="#fff" font-family="Space Grotesk, Inter, Arial, sans-serif" font-size="24" font-weight="700">Summoner's Rift</text>
  <text x="300" y="82" fill="#52525b" font-family="Inter, Arial, sans-serif" font-size="20">/</text>
  <text x="326" y="82" fill="#a1a1aa" font-family="Space Grotesk, Inter, Arial, sans-serif" font-size="20">Ranked Solo</text>
  <rect x="1055" y="60" width="150" height="30" rx="15" fill="#052e24" stroke="#10b981" opacity=".9"/>
  <circle cx="1076" cy="75" r="4" fill="#34d399"/>
  <text x="1090" y="80" fill="#34d399" font-family="Inter, Arial, sans-serif" font-size="13" font-weight="700">Client Connected</text>
  <rect x="70" y="106" width="178" height="614" fill="#121214" opacity=".44"/>
  <rect x="1032" y="106" width="248" height="614" fill="#121214" opacity=".44"/>
  <g transform="translate(104 138)">
    <text x="0" y="0" fill="#06b6d4" font-family="Inter, Arial, sans-serif" font-size="13" font-weight="800" letter-spacing="2">BLUE TEAM</text>
    <g transform="translate(0 38)">
      <rect x="-20" y="-16" width="170" height="88" fill="#ffffff" opacity=".025"/>
      <rect x="-20" y="-16" width="3" height="88" fill="#06b6d4"/>
      <circle cx="24" cy="28" r="24" fill="#0e7490" stroke="#06b6d4"/>
      <text x="62" y="26" fill="#fff" font-family="Inter, Arial, sans-serif" font-size="15" font-weight="700">You</text>
      <text x="62" y="48" fill="#06b6d4" font-family="Inter, Arial, sans-serif" font-size="12">Picking...</text>
    </g>
    <g fill="#27272a">
      <circle cx="24" cy="146" r="20"/>
      <circle cx="24" cy="244" r="20"/>
      <circle cx="24" cy="342" r="20"/>
      <circle cx="24" cy="440" r="20"/>
    </g>
    <g fill="#52525b" font-family="Inter, Arial, sans-serif" font-size="12" font-weight="700">
      <text x="62" y="151">TOP LANE</text>
      <text x="62" y="249">JUNGLE</text>
      <text x="62" y="347">MID LANE</text>
      <text x="62" y="445">SUPPORT</text>
    </g>
  </g>
  <g transform="translate(1064 138)" text-anchor="end">
    <text x="150" y="0" fill="#ef4444" font-family="Inter, Arial, sans-serif" font-size="13" font-weight="800" letter-spacing="2">RED TEAM</text>
    <g fill="#27272a">
      <circle cx="126" cy="66" r="20"/>
      <circle cx="126" cy="164" r="20"/>
      <circle cx="126" cy="262" r="20"/>
      <circle cx="126" cy="360" r="20"/>
      <circle cx="126" cy="458" r="20"/>
    </g>
    <g fill="#d4d4d8" font-family="Inter, Arial, sans-serif" font-size="14" font-weight="700">
      <text x="96" y="70">Darius</text>
      <text x="96" y="168">Viego</text>
      <text x="96" y="462">Nautilus</text>
    </g>
    <g fill="#52525b" font-family="Inter, Arial, sans-serif" font-size="11" font-weight="700">
      <text x="96" y="90">TOP</text>
      <text x="96" y="188">JUNGLE</text>
      <text x="96" y="286">MID</text>
      <text x="96" y="384">BOT</text>
      <text x="96" y="482">SUPPORT</text>
    </g>
  </g>
  <g transform="translate(310 142)">
    <rect x="284" y="0" width="220" height="50" rx="25" fill="#121214" stroke="#27272a"/>
    <circle cx="394" cy="25" r="20" fill="#06b6d4"/>
    <text x="394" y="31" fill="#001015" font-family="Inter, Arial, sans-serif" font-size="18" font-weight="900" text-anchor="middle">ADC</text>
    <g transform="translate(0 120)">
      <rect width="210" height="420" rx="22" fill="url(#card)" stroke="#3f3f46"/>
      <rect x="0" y="0" width="210" height="260" rx="22" fill="#3b2a20" opacity=".78"/>
      <text x="26" y="320" fill="#fff" font-family="Space Grotesk, Inter, Arial, sans-serif" font-size="32" font-weight="700">Jhin</text>
      <text x="166" y="320" fill="#34d399" font-family="Inter, Arial, sans-serif" font-size="24" font-weight="700">94%</text>
      <text x="26" y="354" fill="#a1a1aa" font-family="Inter, Arial, sans-serif" font-size="13">Strong synergy and lane pressure.</text>
      <rect x="26" y="374" width="64" height="24" rx="6" fill="#111827" stroke="#eab308"/>
      <text x="58" y="391" fill="#eab308" font-family="Inter, Arial, sans-serif" font-size="11" font-weight="800" text-anchor="middle">S-TIER</text>
    </g>
    <g transform="translate(246 80)">
      <rect width="250" height="460" rx="24" fill="url(#card)" stroke="#06b6d4" stroke-opacity=".6"/>
      <rect x="0" y="0" width="250" height="290" rx="24" fill="#14313a"/>
      <circle cx="38" cy="38" r="18" fill="#06b6d4"/>
      <text x="38" y="44" fill="#001015" font-family="Inter, Arial, sans-serif" font-size="16" font-weight="900" text-anchor="middle">1</text>
      <text x="28" y="348" fill="#fff" font-family="Space Grotesk, Inter, Arial, sans-serif" font-size="38" font-weight="700">Kai'sa</text>
      <text x="190" y="348" fill="#06b6d4" font-family="Inter, Arial, sans-serif" font-size="26" font-weight="800">98%</text>
      <rect x="28" y="370" width="86" height="24" rx="6" fill="#06343d" stroke="#06b6d4"/>
      <text x="71" y="387" fill="#06b6d4" font-family="Inter, Arial, sans-serif" font-size="11" font-weight="800" text-anchor="middle">HYPERCARRY</text>
      <rect x="28" y="408" width="94" height="38" rx="8" fill="#06b6d4"/>
      <text x="75" y="432" fill="#001015" font-family="Inter, Arial, sans-serif" font-size="14" font-weight="900" text-anchor="middle">LOCK IN</text>
      <rect x="132" y="408" width="90" height="38" rx="8" fill="#27272a" stroke="#3f3f46"/>
      <text x="177" y="432" fill="#d4d4d8" font-family="Inter, Arial, sans-serif" font-size="14" font-weight="800" text-anchor="middle">BAN</text>
    </g>
    <g transform="translate(532 120)">
      <rect width="210" height="420" rx="22" fill="url(#card)" stroke="#3f3f46"/>
      <rect x="0" y="0" width="210" height="260" rx="22" fill="#24364f" opacity=".78"/>
      <text x="26" y="320" fill="#fff" font-family="Space Grotesk, Inter, Arial, sans-serif" font-size="32" font-weight="700">Ezreal</text>
      <text x="166" y="320" fill="#34d399" font-family="Inter, Arial, sans-serif" font-size="24" font-weight="700">91%</text>
      <text x="26" y="354" fill="#a1a1aa" font-family="Inter, Arial, sans-serif" font-size="13">Safe scaling pick with flexible range.</text>
      <rect x="26" y="374" width="64" height="24" rx="6" fill="#18181b" stroke="#3f3f46"/>
      <text x="58" y="391" fill="#a1a1aa" font-family="Inter, Arial, sans-serif" font-size="11" font-weight="800" text-anchor="middle">A-TIER</text>
    </g>
  </g>
</svg>
