<svg xmlns="http://www.w3.org/2000/svg" viewBox="0 0 1280 720" role="img" aria-labelledby="title desc">
  <title id="title">Remax SmartMatch home preview</title>
  <desc id="desc">Dark landing page preview with Remax balloon and search actions.</desc>
  <defs>
    <linearGradient id="bg" x1="0" y1="0" x2="1" y2="1">
      <stop offset="0" stop-color="#0f2747"/>
      <stop offset="1" stop-color="#0a0824"/>
    </linearGradient>
    <linearGradient id="blue" x1="0" y1="0" x2="1" y2="0">
      <stop offset="0" stop-color="#3b82f6"/>
      <stop offset="1" stop-color="#6457f6"/>
    </linearGradient>
  </defs>
  <rect width="1280" height="720" fill="url(#bg)"/>
  <g fill="#ffffff" opacity=".75">
    <circle cx="122" cy="210" r="1.8"/>
    <circle cx="284" cy="158" r="1.4"/>
    <circle cx="530" cy="98" r="1.6"/>
    <circle cx="922" cy="182" r="1.5"/>
    <circle cx="1110" cy="318" r="1.6"/>
    <circle cx="748" cy="608" r="1.7"/>
    <circle cx="358" cy="590" r="1.4"/>
  </g>
  <g transform="translate(60 58)">
    <text x="0" y="0" fill="#fff" font-family="Inter, Arial, sans-serif" font-size="22" font-weight="700">Paraf</text>
  </g>
  <g transform="translate(255 210)">
    <text x="0" y="0" fill="#ffffff" font-family="Inter, Arial, sans-serif" font-size="66" font-weight="800">Hayalini Kur</text>
    <text x="0" y="68" fill="#75a0ff" font-family="Inter, Arial, sans-serif" font-size="66" font-weight="800">Ilk Adimini At</text>
    <text x="0" y="126" fill="#d6def2" font-family="Inter, Arial, sans-serif" font-size="22">Turkiye genelinde sana en uygun gayrimenkulu bulalim.</text>
    <text x="0" y="160" fill="#d6def2" font-family="Inter, Arial, sans-serif" font-size="22">Yasam tarzina gore akilli eslestirme ile ideal tercihini kesfet.</text>
    <rect x="0" y="218" width="172" height="56" rx="28" fill="url(#blue)"/>
    <text x="36" y="253" fill="#fff" font-family="Inter, Arial, sans-serif" font-size="18" font-weight="700">Akilli Arama</text>
    <rect x="192" y="218" width="142" height="56" rx="28" fill="#2a3854" stroke="#52627c"/>
    <text x="228" y="253" fill="#eef3ff" font-family="Inter, Arial, sans-serif" font-size="18" font-weight="700">Tum Ilanlar</text>
  </g>
  <g transform="translate(790 140)">
    <path d="M120 0c76 0 142 62 142 138 0 95-142 226-142 226S-22 233-22 138C-22 62 44 0 120 0Z" fill="#ffffff"/>
    <path d="M120 16c60 0 112 49 112 109 0 75-112 178-112 178S8 200 8 125C8 65 60 16 120 16Z" fill="#0f45ad"/>
    <path d="M8 125C8 65 60 16 120 16c60 0 112 49 112 109-72-30-146-30-224 0Z" fill="#e11d2e"/>
    <path d="M45 120c45-18 96-18 150 0" fill="none" stroke="#fff" stroke-width="22" stroke-linecap="round"/>
    <text x="42" y="139" fill="#0b4bb3" font-family="Inter, Arial, sans-serif" font-size="46" font-weight="900" transform="rotate(-8 120 130)">RE/MAX</text>
    <text x="52" y="442" fill="#e11d2e" font-family="Inter, Arial, sans-serif" font-size="48" font-weight="900">RE/MAX</text>
    <text x="78" y="482" fill="#0b61b7" font-family="Inter, Arial, sans-serif" font-size="34" font-weight="800" letter-spacing="8">PARAF</text>
  </g>
</svg>
